PathFileType	4	(X/Y/Z)	C:\Users\Basilio\Documents\Thesis Gigler\squatting_fais\c3dfiles\019\SLS_front_pre1\markers_experimental.trc
DataRate	CameraRate	NumFrames	NumMarkers	Units	OrigDataRate	OrigDataStartFrame	OrigNumFrames
200.000000	200.000000	4	59	mm	200.000000	0	1631
Frame#	Time	LBHD			RBHD			C7			T10			CLAV			LSHO			LUUPA			LMUPA			LDUPA			LLEP			LMEP			LRAD			LUL			LRFIN			RSHO			RUPA1			RMUPA			RDUPA			RLEP			RRAD			RUL			RUFIN			LASI			RASI			USACR			LSACR			RSACR			LTHI1			LTHI2			LTHI3			LTHI4			LLFC			LTIB1			LTIB2			LTIB3			LTIB4			LLMAL			LMMAL			LHEE			LMT1			LMT2			LMT5			RTHI			RTHI3			RTHI4			RLFC			RTIB1			RTIB2			RTIB3			RTIB4			RLMAL			RMMAL			RHEE			RMT1			RMT2			RMT5			FHD			RTHI2			RMEP			
		X1	Y1	Z1	X2	Y2	Z2	X3	Y3	Z3	X4	Y4	Z4	X5	Y5	Z5	X6	Y6	Z6	X7	Y7	Z7	X8	Y8	Z8	X9	Y9	Z9	X10	Y10	Z10	X11	Y11	Z11	X12	Y12	Z12	X13	Y13	Z13	X14	Y14	Z14	X15	Y15	Z15	X16	Y16	Z16	X17	Y17	Z17	X18	Y18	Z18	X19	Y19	Z19	X20	Y20	Z20	X21	Y21	Z21	X22	Y22	Z22	X23	Y23	Z23	X24	Y24	Z24	X25	Y25	Z25	X26	Y26	Z26	X27	Y27	Z27	X28	Y28	Z28	X29	Y29	Z29	X30	Y30	Z30	X31	Y31	Z31	X32	Y32	Z32	X33	Y33	Z33	X34	Y34	Z34	X35	Y35	Z35	X36	Y36	Z36	X37	Y37	Z37	X38	Y38	Z38	X39	Y39	Z39	X40	Y40	Z40	X41	Y41	Z41	X42	Y42	Z42	X43	Y43	Z43	X44	Y44	Z44	X45	Y45	Z45	X46	Y46	Z46	X47	Y47	Z47	X48	Y48	Z48	X49	Y49	Z49	X50	Y50	Z50	X51	Y51	Z51	X52	Y52	Z52	X53	Y53	Z53	X54	Y54	Z54	X55	Y55	Z55	X56	Y56	Z56	X57	Y57	Z57	X58	Y58	Z58	X59	Y59	Z59	

1	0	-429.0092163085939	1686.32763671875	-858.3627929687502	-431.4155578613282	1678.3974609375	-718.5570068359376	-445.9556579589845	1504.10693359375	-779.1723632812502	-459.8565979003907	1211.586547851563	-775.2630615234377	-311.7066955566407	1462.816040039063	-787.1546630859377	-376.2619628906251	1505.000366210938	-922.4031982421877	-252.7948150634766	1482.130615234375	-979.2639770507815	-227.7216796875001	1476.795532226563	-937.2219238281252	-185.206298828125	1481.285766601563	-980.3867187500002	-114.2360916137696	1455.146118164063	-1014.397155761719	-112.9571762084961	1396.839111328125	-1000.649536132813	134.802963256836	1466.290283203125	-921.8413085937502	131.6974182128907	1469.537475585938	-989.967224121094	207.3946228027344	1480.42578125	-919.2760009765627	-360.9814147949219	1497.891845703125	-655.4592895507814	-239.8302154541016	1427.490844726563	-556.0076293945314	-212.8991851806641	1457.958618164063	-582.9349365234376	-170.7947692871094	1426.268432617188	-552.7890625000001	-96.16552734375003	1426.233642578125	-560.2435302734376	139.5026092529297	1463.374633789063	-647.8275756835939	152.5195617675782	1462.221435546875	-582.2832641601564	224.7235260009766	1481.3203125	-649.3305664062501	-292.0219116210938	1014.022644042969	-906.318542480469	-272.0004577636719	1008.721374511719	-693.3942871093751	-448.088836669922	1079.6591796875	-781.1787719726565	-453.3108215332032	1047.1416015625	-809.472351074219	-447.096649169922	1047.592895507813	-751.9819335937501	-339.7738952636719	758.7261962890626	-987.8170166015627	-296.7524414062501	685.2767333984376	-992.7207031250002	-251.2299957275391	693.6945190429689	-978.1214599609377	-317.6635437011719	628.5933227539064	-982.5450439453127	-316.7290954589844	532.6990356445314	-975.4597778320315	-290.2659301757813	386.1636352539064	-952.6389160156252	-352.8874511718751	356.3891296386719	-1006.941528320313	-317.2371520996094	345.2206726074219	-984.3403320312502	-333.5935974121094	265.1424255371094	-954.0588989257815	-424.366180419922	154.3068237304688	-980.147888183594	-405.4631347656251	152.5676422119141	-903.6018066406252	-498.9847717285157	126.1110382080078	-931.9739379882815	-285.1937255859376	66.19060516357423	-924.6760864257815	-287.7236633300782	68.8850555419922	-967.3023681640627	-336.3246459960938	60.24697494506837	-1018.945251464844	-312.3917236328126	809.4893798828127	-623.9179687500001	-249.524398803711	763.3497314453126	-657.3397216796876	-301.0809936523438	680.2615356445314	-632.1016845703126	-343.6392517089844	519.1262207031251	-662.7221069335939	-306.3476562500001	339.3619079589844	-727.0731201171876	-356.2739257812501	257.3545837402344	-670.0331420898439	-324.7950134277344	257.0252380371094	-705.0258789062501	-335.7182922363282	216.2410736083985	-746.4158325195314	-393.2887268066407	130.1853179931641	-703.0013427734376	-380.2783813476563	137.175765991211	-777.185729980469	-456.7968139648439	106.3627548217774	-749.5413818359376	-258.3531799316407	55.72320556640626	-780.4488525390627	-248.9885253906251	60.36410522460939	-732.6809082031251	-291.3215637207032	49.92733383178712	-678.7830200195314	nan	nan	nan	nan	nan	nan	nan	nan	nan	
2	0.005	-429.0860290527345	1686.288208007813	-858.4292602539065	-431.4762268066407	1678.435180664063	-718.6124267578126	-445.9893798828126	1504.057250976563	-779.1762695312502	-459.8733520507814	1211.553344726563	-775.2933349609377	-311.7746887207032	1462.841674804688	-787.1182250976565	-376.3722534179688	1504.998046875	-922.543151855469	-252.8966369628907	1482.121459960938	-979.3605957031252	-227.726791381836	1476.793823242188	-937.2584228515627	-185.1033477783203	1481.280883789063	-980.2888183593752	-114.242919921875	1455.096069335938	-1014.460327148438	-112.9910888671875	1396.782348632813	-1000.708923339844	134.8070831298828	1466.205688476563	-921.8755493164065	131.6247253417969	1469.427856445313	-989.9649047851565	207.3438415527344	1480.423583984375	-919.294860839844	-360.7741394042969	1497.641357421875	-655.3776245117189	-239.8250579833985	1427.511108398438	-556.0301513671876	-212.8640747070313	1458.076049804688	-582.9628295898439	-170.7965087890625	1426.311401367188	-552.8056030273439	-96.14918518066409	1426.286499023438	-560.2689819335939	139.5602722167969	1463.463623046875	-647.8738403320314	152.527816772461	1462.303466796875	-582.2896118164064	224.8851470947266	1481.393920898438	-649.3574218750001	-291.9379272460938	1014.042297363281	-906.2740478515627	-272.0004577636719	1008.721374511719	-693.3942871093751	-448.098846435547	1079.630126953125	-781.1089477539065	-453.5057373046876	1047.233276367188	-809.4595947265627	-447.1694946289064	1047.617919921875	-751.9604492187501	-339.7268371582032	758.7308349609376	-987.755310058594	-296.7840881347657	685.2788085937501	-992.6885986328127	-251.2259368896485	693.7197875976564	-978.1170654296877	-317.6673583984376	628.5465698242189	-982.5435791015627	-316.6611938476563	532.6381225585939	-975.4541625976565	-290.2536926269532	386.1995849609376	-952.638366699219	-352.8380737304688	356.4138183593751	-1006.96240234375	-317.2139587402344	345.2609252929688	-984.3559570312502	-333.5935974121094	265.1424255371094	-954.0588989257815	-424.2209472656251	154.2532653808594	-980.0933837890627	-405.4642944335939	152.5660705566407	-903.6021118164065	-498.994842529297	126.1533737182617	-931.9468383789065	-285.1944274902344	66.19376373291017	-924.6816406250002	-287.7920532226563	68.77486419677736	-967.3469238281252	-336.3420715332032	60.22618103027345	-1018.94970703125	-312.3881530761719	809.4194946289065	-623.9091796875001	-249.5156555175782	763.4131469726564	-657.3562011718751	-301.0594787597657	680.2437133789064	-632.1061401367189	-343.5680847167969	519.0689697265626	-662.6972656250001	-306.2611389160157	339.3753967285157	-727.0737304687501	-356.2516174316407	257.3340454101563	-670.0380249023439	-324.7891235351563	256.9442443847657	-705.0195312500001	-335.7179870605469	216.2409667968751	-746.4155883789064	-393.2808532714845	130.211181640625	-703.0040893554689	-380.2487792968751	137.176513671875	-777.1050415039065	-456.8097229003907	106.1329727172852	-749.5120239257814	-258.3340454101563	55.72901153564455	-780.4414062500002	-249.0917510986329	60.32211685180665	-732.6240234375001	-291.2900085449219	49.90062713623048	-678.7851562500001	-302.8267211914063	1726.711791992188	-715.7024536132814	nan	nan	nan	nan	nan	nan	
3	0.01	-429.0520935058595	1686.249877929688	-858.4394531250002	-431.4897766113282	1678.398559570313	-718.6166992187501	-445.9503173828126	1504.098999023438	-779.1993408203127	-459.867889404297	1211.531127929688	-775.266540527344	-311.7104492187501	1462.848022460938	-787.1975097656252	-377.5927429199219	1505.171752929688	-923.643981933594	-252.8221435546876	1482.079833984375	-979.3389892578127	-227.7157287597657	1476.785278320313	-937.3016357421877	-185.1633911132813	1481.2568359375	-980.432067871094	-114.2126617431641	1455.067260742188	-1014.504089355469	-113.0355529785157	1396.79541015625	-1000.780578613281	134.7077178955078	1466.200317382813	-921.9105224609377	131.8571014404297	1469.479736328125	-989.874938964844	207.4071960449219	1480.295166015625	-919.3292236328127	-360.8815612792969	1497.866943359375	-655.4313964843751	-239.8206329345704	1427.582641601563	-556.0289306640626	-212.9111938476563	1458.091674804688	-583.0049438476564	-170.7885284423828	1426.361938476563	-552.8087768554689	-96.17202758789065	1426.284790039063	-560.2784423828126	139.5319366455078	1463.460327148438	-647.9202880859376	152.4913635253907	1462.338500976563	-582.3834228515626	224.6842498779297	1481.463989257813	-649.4464721679689	-291.9379272460938	1014.042297363281	-906.2740478515627	-271.9864196777344	1008.765563964844	-693.3863525390626	-448.0989074707032	1079.630126953125	-781.1089477539065	-453.3108215332032	1047.1416015625	-809.472351074219	-447.1752319335939	1047.598754882813	-751.9643554687501	-339.7351074218751	758.7153930664064	-987.7593383789065	-296.6445617675782	685.2526855468751	-992.6242675781252	-251.1992797851563	693.6963500976564	-978.1446533203127	-317.6207580566407	628.5850830078126	-982.5173339843752	-316.6729736328126	532.6898193359376	-975.4041137695315	-289.5758056640626	385.8269958496095	-952.7719726562502	-352.9764709472657	356.3899536132813	-1006.907653808594	-317.2795715332032	345.2474975585938	-984.3618164062502	-333.5935974121094	265.1424255371094	-954.0588989257815	-428.2197875976564	155.5037994384766	-982.315856933594	-405.4671325683595	152.5422515869141	-903.5999145507815	-498.9878234863282	126.1393203735352	-931.9675903320315	-285.2537841796876	66.15908050537111	-924.650329589844	-287.8211975097657	68.77847290039064	-967.329284667969	-336.3391723632813	60.23298645019533	-1018.946228027344	-312.3881530761719	809.4194946289065	-623.9091796875001	-249.5244293212891	763.4050903320314	-657.3631591796876	-300.9809875488282	680.2745971679689	-632.0819091796876	-343.4878234863282	518.9870605468751	-662.7070312500001	-306.8736572265626	339.6485290527344	-727.1066284179689	-356.2516174316407	257.3340454101563	-670.0380249023439	-324.7330932617188	256.9623413085938	-705.0145263671876	-335.7338256835938	216.2161407470704	-746.4240722656251	-393.2883300781251	130.1851806640625	-703.0010986328126	-380.2515869140626	137.1681823730469	-777.099304199219	-456.7487182617189	106.2932205200196	-749.5170898437501	-258.3544311523438	55.72390365600587	-780.4490356445315	-249.0926971435547	60.32067108154298	-732.6342773437501	-291.3182983398438	49.97103118896486	-678.7973632812501	-302.8519897460938	1726.680053710938	-715.6871948242189	nan	nan	nan	nan	nan	nan	
4	0.015	-429.1817016601564	1686.2470703125	-858.4868774414065	-431.5504760742189	1678.387939453125	-718.6744384765626	-445.9651794433595	1504.097045898438	-779.231872558594	-459.8679199218751	1211.531127929688	-775.266540527344	-311.8093261718751	1462.836059570313	-787.2337646484377	-376.3784179687501	1504.953369140625	-922.567565917969	-252.8178253173829	1482.024536132813	-979.3977050781252	-227.8247070312501	1476.770141601563	-937.3982543945315	-185.1685638427735	1481.212646484375	-980.4885253906252	-114.2565231323242	1455.025146484375	-1014.510314941406	-113.0466003417969	1396.703491210938	-1000.776916503906	134.7744445800782	1466.05126953125	-921.976501464844	131.859359741211	1469.402465820313	-989.9072265625002	207.4564361572266	1480.215209960938	-919.3892822265627	-360.9153137207032	1497.75	-655.4335327148439	-239.9157257080079	1427.626342773438	-555.9628295898439	-212.8754425048829	1458.060424804688	-583.0523681640626	-170.7805480957032	1426.41943359375	-552.8131103515626	-96.22283935546878	1426.296875	-560.3359985351564	139.4508666992188	1463.495239257813	-647.9326171875001	152.4887390136719	1462.393920898438	-582.4195556640626	224.539779663086	1481.57958984375	-649.5153198242189	-291.9594421386719	1014.04052734375	-906.2463378906252	-271.9864196777344	1008.765563964844	-693.3863525390626	-448.0425109863282	1079.59521484375	-781.1374511718752	-453.316375732422	1047.113647460938	-809.461120605469	-447.1040344238282	1047.581420898438	-751.9413452148439	-339.7210693359376	758.7326049804689	-987.784851074219	-296.7009582519532	685.2875976562501	-992.6389770507815	-251.1073760986329	693.7286987304689	-978.0806884765627	-317.5669860839844	628.5766601562501	-982.4825439453127	-316.6172790527344	532.6401367187501	-975.3856201171877	-290.2583007812501	386.1790161132814	-952.632507324219	-352.8912658691407	356.3638305664063	-1006.858520507813	-317.2164916992188	345.3267517089844	-984.3325805664065	-333.5888977050782	265.1531677246094	-954.088073730469	-424.2815856933595	154.3011322021485	-980.158386230469	-405.462860107422	152.5670318603516	-903.6003417968752	-499.0041503906251	126.2082672119141	-931.978210449219	-285.1772766113282	66.12451171875001	-924.6823730468752	-287.8879089355469	68.81484985351564	-967.390075683594	-336.3471374511719	60.22947311401369	-1018.945434570313	-312.3881530761719	809.4194946289065	-623.9091796875001	-249.4360961914063	763.4074707031251	-657.4071044921876	-300.9198303222657	680.2609252929689	-632.1225585937501	-343.4536743164063	518.9825439453126	-662.6979980468751	-306.1877746582032	339.3288269042969	-727.0676879882814	-356.1405334472657	257.3091125488282	-670.0413208007814	-324.6873474121094	256.9719848632813	-705.0652465820314	-335.7031555175782	216.2303619384766	-746.4240112304689	-393.2792053222657	130.1879577636719	-703.0092773437501	-380.3110961914063	137.1345520019532	-777.2487792968752	-456.8042297363282	106.1502151489258	-749.5084838867189	-258.3725280761719	55.72332763671876	-780.454772949219	-249.0926971435547	60.32067108154298	-732.6342773437501	-291.3492126464844	49.89391326904298	-678.7982177734376	-302.9529724121094	1726.662231445313	-715.7601928710939	nan	nan	nan	nan	nan	nan	
